<svg id="mermaidSvgChart" width="100%" xmlns="http://www.w3.org/2000/svg" xmlns:xlink="http://www.w3.org/1999/xlink" height="714" style="max-width: 1371.90625px;" viewBox="-20 -20 1371.90625 714"><style>#mermaidSvgChart{font-family:"trebuchet ms",verdana,arial,sans-serif;font-size:16px;fill:#000000;}#mermaidSvgChart .error-icon{fill:#552222;}#mermaidSvgChart .error-text{fill:#552222;stroke:#552222;}#mermaidSvgChart .edge-thickness-normal{stroke-width:2px;}#mermaidSvgChart .edge-thickness-thick{stroke-width:3.5px;}#mermaidSvgChart .edge-pattern-solid{stroke-dasharray:0;}#mermaidSvgChart .edge-pattern-dashed{stroke-dasharray:3;}#mermaidSvgChart .edge-pattern-dotted{stroke-dasharray:2;}#mermaidSvgChart .marker{fill:#666;stroke:#666;}#mermaidSvgChart .marker.cross{stroke:#666;}#mermaidSvgChart svg{font-family:"trebuchet ms",verdana,arial,sans-serif;font-size:16px;}#mermaidSvgChart g.classGroup text{fill:#999;fill:#111111;stroke:none;font-family:"trebuchet ms",verdana,arial,sans-serif;font-size:10px;}#mermaidSvgChart g.classGroup text .title{font-weight:bolder;}#mermaidSvgChart .classTitle{font-weight:bolder;}#mermaidSvgChart .node rect,#mermaidSvgChart .node circle,#mermaidSvgChart .node ellipse,#mermaidSvgChart .node polygon,#mermaidSvgChart .node path{fill:#eee;stroke:#999;stroke-width:1px;}#mermaidSvgChart .divider{stroke:#999;stroke:1;}#mermaidSvgChart g.clickable{cursor:pointer;}#mermaidSvgChart g.classGroup rect{fill:#eee;stroke:#999;}#mermaidSvgChart g.classGroup line{stroke:#999;stroke-width:1;}#mermaidSvgChart .classLabel .box{stroke:none;stroke-width:0;fill:#eee;opacity:0.5;}#mermaidSvgChart .classLabel .label{fill:#999;font-size:10px;}#mermaidSvgChart .relation{stroke:#666;stroke-width:1;fill:none;}#mermaidSvgChart .dashed-line{stroke-dasharray:3;}#mermaidSvgChart #compositionStart,#mermaidSvgChart .composition{fill:#666 !important;stroke:#666 !important;stroke-width:1;}#mermaidSvgChart #compositionEnd,#mermaidSvgChart .composition{fill:#666 !important;stroke:#666 !important;stroke-width:1;}#mermaidSvgChart #dependencyStart,#mermaidSvgChart .dependency{fill:#666 !important;stroke:#666 !important;stroke-width:1;}#mermaidSvgChart #dependencyStart,#mermaidSvgChart .dependency{fill:#666 !important;stroke:#666 !important;stroke-width:1;}#mermaidSvgChart #extensionStart,#mermaidSvgChart .extension{fill:#666 !important;stroke:#666 !important;stroke-width:1;}#mermaidSvgChart #extensionEnd,#mermaidSvgChart .extension{fill:#666 !important;stroke:#666 !important;stroke-width:1;}#mermaidSvgChart #aggregationStart,#mermaidSvgChart .aggregation{fill:#eee !important;stroke:#666 !important;stroke-width:1;}#mermaidSvgChart #aggregationEnd,#mermaidSvgChart .aggregation{fill:#eee !important;stroke:#666 !important;stroke-width:1;}#mermaidSvgChart .edgeTerminals{font-size:11px;}#mermaidSvgChart:root{--mermaid-font-family:"trebuchet ms",verdana,arial,sans-serif;}#mermaidSvgChart class{fill:apa;}</style><g></g><defs><marker id="extensionStart" class="extension" refX="0" refY="7" markerWidth="190" markerHeight="240" orient="auto"><path d="M 1,7 L18,13 V 1 Z"></path></marker></defs><defs><marker id="extensionEnd" refX="19" refY="7" markerWidth="20" markerHeight="28" orient="auto"><path d="M 1,1 V 13 L18,7 Z"></path></marker></defs><defs><marker id="compositionStart" class="extension" refX="0" refY="7" markerWidth="190" markerHeight="240" orient="auto"><path d="M 18,7 L9,13 L1,7 L9,1 Z"></path></marker></defs><defs><marker id="compositionEnd" refX="19" refY="7" markerWidth="20" markerHeight="28" orient="auto"><path d="M 18,7 L9,13 L1,7 L9,1 Z"></path></marker></defs><defs><marker id="aggregationStart" class="extension" refX="0" refY="7" markerWidth="190" markerHeight="240" orient="auto"><path d="M 18,7 L9,13 L1,7 L9,1 Z"></path></marker></defs><defs><marker id="aggregationEnd" refX="19" refY="7" markerWidth="20" markerHeight="28" orient="auto"><path d="M 18,7 L9,13 L1,7 L9,1 Z"></path></marker></defs><defs><marker id="dependencyStart" class="extension" refX="0" refY="7" markerWidth="190" markerHeight="240" orient="auto"><path d="M 5,7 L9,13 L1,7 L9,1 Z"></path></marker></defs><defs><marker id="dependencyEnd" refX="19" refY="7" markerWidth="20" markerHeight="28" orient="auto"><path d="M 18,7 L9,13 L14,7 L9,1 Z"></path></marker></defs><g id="classid-__EFMigrationsHistory-0" class="classGroup" transform="translate(0,20 )"><rect x="0" y="0" width="115.828125" height="51" class=" "></rect><text y="15" x="0"><tspan class="title" x="5">__EFMigrationsHistory</tspan></text><line x1="0" y1="21" y2="21" x2="115.828125"></line><text x="5" y="31" fill="white" class="classText"><tspan x="5">MigrationId</tspan><tspan x="5" dy="10">ProductVersion</tspan></text><line x1="0" y1="47" y2="47" x2="115.828125"></line><text x="5" y="62" fill="white" class="classText"></text></g><g id="classid-ApplicationUsers-1" class="classGroup" transform="translate(1150.38671875,553 )"><rect x="0" y="0" width="89.984375" height="121" class=" "></rect><text y="15" x="0"><tspan class="title" x="5">ApplicationUsers</tspan></text><line x1="0" y1="21" y2="21" x2="89.984375"></line><text x="5" y="31" fill="white" class="classText"><tspan x="5">CreatedOn</tspan><tspan x="5" dy="10">DeletedOn</tspan><tspan x="5" dy="10">Email</tspan><tspan x="5" dy="10">FirstName</tspan><tspan x="5" dy="10">LastName</tspan><tspan x="5" dy="10">ModifiedOn</tspan><tspan x="5" dy="10">PhoneNumber</tspan><tspan x="5" dy="10">UserId</tspan><tspan x="5" dy="10">UserRole</tspan></text><line x1="0" y1="117" y2="117" x2="89.984375"></line><text x="5" y="132" fill="white" class="classText"></text></g><g id="classid-AspNetRoles-2" class="classGroup" transform="translate(163.40625,196 )"><rect x="0" y="0" width="100.140625" height="71" class=" "></rect><text y="15" x="0"><tspan class="title" x="20.40625">AspNetRoles</tspan></text><line x1="0" y1="21" y2="21" x2="100.140625"></line><text x="5" y="31" fill="white" class="classText"><tspan x="5">ConcurrencyStamp</tspan><tspan x="5" dy="10">Id</tspan><tspan x="5" dy="10">Name</tspan><tspan x="5" dy="10">NormalizedName</tspan></text><line x1="0" y1="67" y2="67" x2="100.140625"></line><text x="5" y="82" fill="white" class="classText"></text></g><g id="classid-AspNetUsers-3" class="classGroup" transform="translate(563.5625,141 )"><rect x="0" y="0" width="124.921875" height="181" class=" "></rect><text y="15" x="0"><tspan class="title" x="32.4765625">AspNetUsers</tspan></text><line x1="0" y1="21" y2="21" x2="124.921875"></line><text x="5" y="31" fill="white" class="classText"><tspan x="5">AccessFailedCount</tspan><tspan x="5" dy="10">ConcurrencyStamp</tspan><tspan x="5" dy="10">Email</tspan><tspan x="5" dy="10">EmailConfirmed</tspan><tspan x="5" dy="10">Id</tspan><tspan x="5" dy="10">LockoutEnabled</tspan><tspan x="5" dy="10">LockoutEnd</tspan><tspan x="5" dy="10">NormalizedEmail</tspan><tspan x="5" dy="10">NormalizedUserName</tspan><tspan x="5" dy="10">PasswordHash</tspan><tspan x="5" dy="10">PhoneNumber</tspan><tspan x="5" dy="10">PhoneNumberConfirmed</tspan><tspan x="5" dy="10">SecurityStamp</tspan><tspan x="5" dy="10">TwoFactorEnabled</tspan><tspan x="5" dy="10">UserName</tspan></text><line x1="0" y1="177" y2="177" x2="124.921875"></line><text x="5" y="192" fill="white" class="classText"></text></g><g id="classid-Discounts-4" class="classGroup" transform="translate(946.37890625,372 )"><rect x="0" y="0" width="78" height="131" class=" "></rect><text y="15" x="0"><tspan class="title" x="16.359375">Discounts</tspan></text><line x1="0" y1="21" y2="21" x2="78"></line><text x="5" y="31" fill="white" class="classText"><tspan x="5">CreatedOn</tspan><tspan x="5" dy="10">DeletedOn</tspan><tspan x="5" dy="10">DiscountCode</tspan><tspan x="5" dy="10">DiscountId</tspan><tspan x="5" dy="10">DiscountValue</tspan><tspan x="5" dy="10">Expires</tspan><tspan x="5" dy="10">IsFixedValue</tspan><tspan x="5" dy="10">IsSingleUse</tspan><tspan x="5" dy="10">IsValid</tspan><tspan x="5" dy="10">ModifiedOn</tspan></text><line x1="0" y1="127" y2="127" x2="78"></line><text x="5" y="142" fill="white" class="classText"></text></g><g id="classid-Suppliers-5" class="classGroup" transform="translate(1074.37890625,397 )"><rect x="0" y="0" width="77.5" height="81" class=" "></rect><text y="15" x="0"><tspan class="title" x="16.9375">Suppliers</tspan></text><line x1="0" y1="21" y2="21" x2="77.5"></line><text x="5" y="31" fill="white" class="classText"><tspan x="5">CreatedOn</tspan><tspan x="5" dy="10">DeletedOn</tspan><tspan x="5" dy="10">ModifiedOn</tspan><tspan x="5" dy="10">SupplierId</tspan><tspan x="5" dy="10">SupplierName</tspan></text><line x1="0" y1="77" y2="77" x2="77.5"></line><text x="5" y="92" fill="white" class="classText"></text></g><g id="classid-Addresses-6" class="classGroup" transform="translate(1212.66015625,382 )"><rect x="0" y="0" width="67.203125" height="111" class=" "></rect><text y="15" x="0"><tspan class="title" x="9.4375">Addresses</tspan></text><line x1="0" y1="21" y2="21" x2="67.203125"></line><text x="5" y="31" fill="white" class="classText"><tspan x="5">AddressId</tspan><tspan x="5" dy="10">City</tspan><tspan x="5" dy="10">CreatedOn</tspan><tspan x="5" dy="10">DeletedOn</tspan><tspan x="5" dy="10">ModifiedOn</tspan><tspan x="5" dy="10">PostalCode</tspan><tspan x="5" dy="10">Street</tspan><tspan x="5" dy="10">UserId</tspan></text><line x1="0" y1="107" y2="107" x2="67.203125"></line><text x="5" y="122" fill="white" class="classText"></text></g><g id="classid-AspNetRoleClaims-7" class="classGroup" transform="translate(165.828125,10 )"><rect x="0" y="0" width="95.296875" height="71" class=" "></rect><text y="15" x="0"><tspan class="title" x="5">AspNetRoleClaims</tspan></text><line x1="0" y1="21" y2="21" x2="95.296875"></line><text x="5" y="31" fill="white" class="classText"><tspan x="5">ClaimType</tspan><tspan x="5" dy="10">ClaimValue</tspan><tspan x="5" dy="10">Id</tspan><tspan x="5" dy="10">RoleId</tspan></text><line x1="0" y1="67" y2="67" x2="95.296875"></line><text x="5" y="82" fill="white" class="classText"></text></g><g id="classid-AspNetUserClaims-8" class="classGroup" transform="translate(311.125,10 )"><rect x="0" y="0" width="95.9375" height="71" class=" "></rect><text y="15" x="0"><tspan class="title" x="5">AspNetUserClaims</tspan></text><line x1="0" y1="21" y2="21" x2="95.9375"></line><text x="5" y="31" fill="white" class="classText"><tspan x="5">ClaimType</tspan><tspan x="5" dy="10">ClaimValue</tspan><tspan x="5" dy="10">Id</tspan><tspan x="5" dy="10">UserId</tspan></text><line x1="0" y1="67" y2="67" x2="95.9375"></line><text x="5" y="82" fill="white" class="classText"></text></g><g id="classid-AspNetUserLogins-9" class="classGroup" transform="translate(597.484375,10 )"><rect x="0" y="0" width="110.703125" height="71" class=" "></rect><text y="15" x="0"><tspan class="title" x="12.8203125">AspNetUserLogins</tspan></text><line x1="0" y1="21" y2="21" x2="110.703125"></line><text x="5" y="31" fill="white" class="classText"><tspan x="5">LoginProvider</tspan><tspan x="5" dy="10">ProviderDisplayName</tspan><tspan x="5" dy="10">ProviderKey</tspan><tspan x="5" dy="10">UserId</tspan></text><line x1="0" y1="67" y2="67" x2="110.703125"></line><text x="5" y="82" fill="white" class="classText"></text></g><g id="classid-AspNetUserRoles-10" class="classGroup" transform="translate(457.0625,20 )"><rect x="0" y="0" width="90.421875" height="51" class=" "></rect><text y="15" x="0"><tspan class="title" x="5">AspNetUserRoles</tspan></text><line x1="0" y1="21" y2="21" x2="90.421875"></line><text x="5" y="31" fill="white" class="classText"><tspan x="5">RoleId</tspan><tspan x="5" dy="10">UserId</tspan></text><line x1="0" y1="47" y2="47" x2="90.421875"></line><text x="5" y="62" fill="white" class="classText"></text></g><g id="classid-AspNetUserTokens-11" class="classGroup" transform="translate(758.1875,10 )"><rect x="0" y="0" width="97.578125" height="71" class=" "></rect><text y="15" x="0"><tspan class="title" x="5">AspNetUserTokens</tspan></text><line x1="0" y1="21" y2="21" x2="97.578125"></line><text x="5" y="31" fill="white" class="classText"><tspan x="5">LoginProvider</tspan><tspan x="5" dy="10">Name</tspan><tspan x="5" dy="10">UserId</tspan><tspan x="5" dy="10">Value</tspan></text><line x1="0" y1="67" y2="67" x2="97.578125"></line><text x="5" y="82" fill="white" class="classText"></text></g><g id="classid-Carts-12" class="classGroup" transform="translate(849.8203125,181 )"><rect x="0" y="0" width="66.203125" height="101" class=" "></rect><text y="15" x="0"><tspan class="title" x="20.7578125">Carts</tspan></text><line x1="0" y1="21" y2="21" x2="66.203125"></line><text x="5" y="31" fill="white" class="classText"><tspan x="5">CartId</tspan><tspan x="5" dy="10">CreatedOn</tspan><tspan x="5" dy="10">DeletedOn</tspan><tspan x="5" dy="10">DiscountId</tspan><tspan x="5" dy="10">ModifiedOn</tspan><tspan x="5" dy="10">Price</tspan><tspan x="5" dy="10">UserId</tspan></text><line x1="0" y1="97" y2="97" x2="66.203125"></line><text x="5" y="112" fill="white" class="classText"></text></g><g id="classid-Products-13" class="classGroup" transform="translate(1002.359375,166 )"><rect x="0" y="0" width="91.953125" height="131" class=" "></rect><text y="15" x="0"><tspan class="title" x="25.171875">Products</tspan></text><line x1="0" y1="21" y2="21" x2="91.953125"></line><text x="5" y="31" fill="white" class="classText"><tspan x="5">AvailabilityCount</tspan><tspan x="5" dy="10">CreatedOn</tspan><tspan x="5" dy="10">DeletedOn</tspan><tspan x="5" dy="10">Description</tspan><tspan x="5" dy="10">ModifiedOn</tspan><tspan x="5" dy="10">Name</tspan><tspan x="5" dy="10">Price</tspan><tspan x="5" dy="10">ProductId</tspan><tspan x="5" dy="10">ProductType</tspan><tspan x="5" dy="10">SupplierId</tspan></text><line x1="0" y1="127" y2="127" x2="91.953125"></line><text x="5" y="142" fill="white" class="classText"></text></g><g id="classid-Orders-14" class="classGroup" transform="translate(1167.83203125,166 )"><rect x="0" y="0" width="95.875" height="131" class=" "></rect><text y="15" x="0"><tspan class="title" x="31.8671875">Orders</tspan></text><line x1="0" y1="21" y2="21" x2="95.875"></line><text x="5" y="31" fill="white" class="classText"><tspan x="5">Comment</tspan><tspan x="5" dy="10">CreatedOn</tspan><tspan x="5" dy="10">DeletedOn</tspan><tspan x="5" dy="10">DiscountId</tspan><tspan x="5" dy="10">ModifiedOn</tspan><tspan x="5" dy="10">OrderId</tspan><tspan x="5" dy="10">OrderStatus</tspan><tspan x="5" dy="10">ShippingAddressId</tspan><tspan x="5" dy="10">TotalPrice</tspan><tspan x="5" dy="10">UserId</tspan></text><line x1="0" y1="127" y2="127" x2="95.875"></line><text x="5" y="142" fill="white" class="classText"></text></g><g id="classid-CartItem-15" class="classGroup" transform="translate(914.22265625,0 )"><rect x="0" y="0" width="66.203125" height="91" class=" "></rect><text y="15" x="0"><tspan class="title" x="12.5078125">CartItem</tspan></text><line x1="0" y1="21" y2="21" x2="66.203125"></line><text x="5" y="31" fill="white" class="classText"><tspan x="5">CartId</tspan><tspan x="5" dy="10">CreatedOn</tspan><tspan x="5" dy="10">DeletedOn</tspan><tspan x="5" dy="10">ModifiedOn</tspan><tspan x="5" dy="10">ProductId</tspan><tspan x="5" dy="10">Quantity</tspan></text><line x1="0" y1="87" y2="87" x2="66.203125"></line><text x="5" y="102" fill="white" class="classText"></text></g><g id="classid-OrderItem-16" class="classGroup" transform="translate(1192.66796875,0 )"><rect x="0" y="0" width="66.203125" height="91" class=" "></rect><text y="15" x="0"><tspan class="title" x="8.7890625">OrderItem</tspan></text><line x1="0" y1="21" y2="21" x2="66.203125"></line><text x="5" y="31" fill="white" class="classText"><tspan x="5">CreatedOn</tspan><tspan x="5" dy="10">DeletedOn</tspan><tspan x="5" dy="10">ModifiedOn</tspan><tspan x="5" dy="10">OrderId</tspan><tspan x="5" dy="10">ProductId</tspan><tspan x="5" dy="10">Quantity</tspan></text><line x1="0" y1="87" y2="87" x2="66.203125"></line><text x="5" y="102" fill="white" class="classText"></text></g><path d="M1246.26171875,493L1246.26171875,498.8333333333333C1246.26171875,504.6666666666667,1246.26171875,516.3333333333334,1243.7820495248538,526.3333333333334C1241.3023802997077,536.3333333333334,1236.3430418494152,544.6666666666666,1233.863372624269,548.8333333333334L1231.3837033991229,553" id="edge0" class="relation" marker-end="url(#extensionEnd)"></path><g class="classLabel"><rect class="box" x="1229.640625" y="513.53125" width="33.671875" height="16.015625"></rect><text class="label" x="1246.26171875" y="525.0460934685308" fill="red" text-anchor="middle">UserId</text></g><path d="M213.4765625,81L213.4765625,86.83333333333333C213.4765625,92.66666666666667,213.4765625,104.33333333333333,213.4765625,123.5C213.4765625,142.66666666666666,213.4765625,169.33333333333334,213.4765625,182.66666666666666L213.4765625,196" id="edge1" class="relation" marker-end="url(#extensionEnd)"></path><g class="classLabel"><rect class="box" x="206.796875" y="127" width="13.796875" height="16"></rect><text class="label" x="213.4765625" y="138.5" fill="red" text-anchor="middle">Id</text></g><path d="M359.09375,81L359.09375,86.83333333333333C359.09375,92.66666666666667,359.09375,104.33333333333333,393.171875,124.91221061257939C427.25,145.49108789182546,495.40625,174.9821757836509,529.484375,189.72771972956363L563.5625,204.47326367547635" id="edge2" class="relation" marker-end="url(#extensionEnd)"></path><g class="classLabel"><rect class="box" x="438.578125" y="141.78125" width="13.796875" height="16.015625"></rect><text class="label" x="445.26718241537844" y="153.287090608744" fill="red" text-anchor="middle">Id</text></g><path d="M652.8359375,81L652.8359375,86.83333333333333C652.8359375,92.66666666666667,652.8359375,104.33333333333333,651.8686755952381,114.33333333333333C650.9014136904761,124.33333333333333,648.9668898809524,132.66666666666666,647.9996279761905,136.83333333333334L647.0323660714286,141" id="edge3" class="relation" marker-end="url(#extensionEnd)"></path><g class="classLabel"><rect class="box" x="646.15625" y="99.828125" width="13.796875" height="16.015625"></rect><text class="label" x="652.8359375" y="111.33239495696859" fill="red" text-anchor="middle">Id</text></g><path d="M479.9962599734043,71L473.4441489361702,78.5C466.89203789893617,86,453.78781582446805,101,417.71291832890074,123.50781827559528C381.6380208333333,146.01563655119057,322.5924479166667,176.03127310238116,293.0696614583333,191.03909137797643L263.546875,206.04690965357173" id="edge4" class="relation" marker-end="url(#extensionEnd)"></path><g class="classLabel"><rect class="box" x="372.0625" y="135.984375" width="13.796875" height="16.015625"></rect><text class="label" x="378.74831678919725" y="147.4846087712029" fill="red" text-anchor="middle">Id</text></g><path d="M525.8858045212766,71L532.8306183510638,78.5C539.775432180851,86,553.6650598404254,101,562.7191359357249,112.66666666666667C571.7732120310245,124.33333333333333,575.991736562049,132.66666666666666,578.1009988275613,136.83333333333334L580.2102610930735,141" id="edge5" class="relation" marker-end="url(#extensionEnd)"></path><g class="classLabel"><rect class="box" x="549.546875" y="92.265625" width="13.8125" height="16.015625"></rect><text class="label" x="556.2392866466314" y="103.78001707745355" fill="red" text-anchor="middle">Id</text></g><path d="M806.9765625,81L806.9765625,86.83333333333333C806.9765625,92.66666666666667,806.9765625,104.33333333333333,787.2278645833334,122.77200083470052C767.4791666666666,141.2106683360677,727.9817708333334,166.4213366721354,708.2330729166666,179.02667084016923L688.484375,191.6320050082031" id="edge6" class="relation" marker-end="url(#extensionEnd)"></path><g class="classLabel"><rect class="box" x="755.796875" y="132.890625" width="13.796875" height="16.015625"></rect><text class="label" x="762.4816811623011" y="144.40049761231936" fill="red" text-anchor="middle">Id</text></g><path d="M878.5495806277056,282L877.6116296897547,292.8333333333333C876.6736787518038,303.6666666666667,874.797776875902,325.3333333333333,886.1026644796176,346.0191132029595C897.4075520833334,366.70489307258555,921.8932291666666,386.40978614517115,934.1360677083334,396.26223268146396L946.37890625,406.11467921775676" id="edge7" class="relation" marker-end="url(#extensionEnd)"></path><g class="classLabel"><rect class="box" x="858.4375" y="344.59375" width="52.03125" height="16.015625"></rect><text class="label" x="884.2362282710264" y="356.1052463296099" fill="red" text-anchor="middle">DiscountId</text></g><path d="M890.9918323863636,282L892.7230113636364,292.8333333333333C894.454190340909,303.6666666666667,897.9165482954545,325.3333333333333,899.6477272727274,351.25C901.37890625,377.1666666666667,901.37890625,407.3333333333333,901.37890625,437.5C901.37890625,467.6666666666667,901.37890625,497.8333333333333,942.8802083333334,524.9859228847789C984.3815104166666,552.1385124362245,1067.3841145833333,576.277024872449,1108.8854166666667,588.3462810905612L1150.38671875,600.4155373086735" id="edge8" class="relation" marker-end="url(#extensionEnd)"></path><g class="classLabel"><rect class="box" x="890.765625" y="518.234375" width="33.671875" height="16.015625"></rect><text class="label" x="907.3799058865162" y="529.7451886698032" fill="red" text-anchor="middle">UserId</text></g><path d="M1048.3359375,297L1048.3359375,305.3333333333333C1048.3359375,313.6666666666667,1048.3359375,330.3333333333333,1054.302140883978,347C1060.2683442679556,363.6666666666667,1072.2007510359115,380.3333333333333,1078.1669544198894,388.6666666666667L1084.1331578038673,397" id="edge9" class="relation" marker-end="url(#extensionEnd)"></path><g class="classLabel"><rect class="box" x="1026.71875" y="340.171875" width="50.359375" height="16.015625"></rect><text class="label" x="1051.6812755347178" y="351.6726226314789" fill="red" text-anchor="middle">SupplierId</text></g><path d="M1167.83203125,296.27543186180424L1161.5755208333333,304.7295265515035C1155.3190104166667,313.18362124120284,1142.8059895833333,330.0918106206014,1118.8971354166667,349.5699362553651C1094.98828125,369.04806189012885,1059.68359375,391.09612378025776,1042.03125,402.12015472532215L1024.37890625,413.14418567038655" id="edge10" class="relation" marker-end="url(#extensionEnd)"></path><g class="classLabel"><rect class="box" x="1078.296875" y="351.84375" width="52.03125" height="16.015625"></rect><text class="label" x="1104.098057293657" y="363.3589333284963" fill="red" text-anchor="middle">DiscountId</text></g><path d="M1233.0616375811687,297L1235.2616511093072,305.3333333333333C1237.461664637446,313.6666666666667,1241.8616916937228,330.3333333333333,1244.0617052218615,344.5C1246.26171875,358.6666666666667,1246.26171875,370.3333333333333,1246.26171875,376.1666666666667L1246.26171875,382" id="edge11" class="relation" marker-end="url(#extensionEnd)"></path><g class="classLabel"><rect class="box" x="1219.203125" y="327.40625" width="49.28125" height="16.015625"></rect><text class="label" x="1244.1286610267714" y="338.920285580269" fill="red" text-anchor="middle">AddressId</text></g><path d="M1263.70703125,287.37417218543044L1272.2330729166667,297.31181015452535C1280.7591145833333,307.2494481236203,1297.8111979166667,327.1247240618101,1306.3372395833333,352.1456953642384C1314.86328125,377.1666666666667,1314.86328125,407.3333333333333,1314.86328125,437.5C1314.86328125,467.6666666666667,1314.86328125,497.8333333333333,1302.4479166666667,521.8007878906761C1290.0325520833333,545.7682424480189,1265.2018229166667,563.5364848960377,1252.7864583333333,572.4206061200471L1240.37109375,581.3047273440565" id="edge12" class="relation" marker-end="url(#extensionEnd)"></path><g class="classLabel"><rect class="box" x="1298.234375" y="432.515625" width="33.671875" height="16.015625"></rect><text class="label" x="1314.86328125" y="444.01810242229647" fill="red" text-anchor="middle">UserId</text></g><path d="M914.22265625,81.73564020137079L909.005859375,87.44636683447565C903.7890625,93.15709346758052,893.35546875,104.57854673379025,888.138671875,121.12260670022846C882.921875,137.66666666666666,882.921875,159.33333333333334,882.921875,170.16666666666666L882.921875,181" id="edge13" class="relation" marker-end="url(#extensionEnd)"></path><g class="classLabel"><rect class="box" x="866.6875" y="113.78125" width="32.890625" height="16.015625"></rect><text class="label" x="882.921875" y="125.29555398598002" fill="red" text-anchor="middle">CartId</text></g><path d="M980.42578125,68.60286554004409L991.744140625,76.50238795003675C1003.0625,84.40191036002939,1025.69921875,100.2009551800147,1037.017578125,116.43381092334069C1048.3359375,132.66666666666666,1048.3359375,149.33333333333334,1048.3359375,157.66666666666666L1048.3359375,166" id="edge14" class="relation" marker-end="url(#extensionEnd)"></path><g class="classLabel"><rect class="box" x="1011.046875" y="95.109375" width="48.109375" height="16.015625"></rect><text class="label" x="1034.8814893054027" y="106.60961827541306" fill="red" text-anchor="middle">ProductId</text></g><path d="M1219.3156305407801,91L1218.7246139923168,95.16666666666667C1218.1335974438534,99.33333333333333,1216.9515643469267,107.66666666666667,1216.3605477984634,120.16666666666667C1215.76953125,132.66666666666666,1215.76953125,149.33333333333334,1215.76953125,157.66666666666666L1215.76953125,166" id="edge15" class="relation" marker-end="url(#extensionEnd)"></path><g class="classLabel"><rect class="box" x="1196.3125" y="116.859375" width="39.34375" height="16.015625"></rect><text class="label" x="1215.76953125" y="128.37487801860837" fill="red" text-anchor="middle">OrderId</text></g><path d="M1232.2234319592199,91L1232.8144485076832,95.16666666666667C1233.4054650561466,99.33333333333333,1234.5874981530733,107.66666666666667,1211.6023428265366,126.36140056547805C1188.6171875,145.05613446428944,1141.46484375,174.11226892857886,1117.888671875,188.64033616072356L1094.3125,203.1684033928683" id="edge16" class="relation" marker-end="url(#extensionEnd)"></path><g class="classLabel"><rect class="box" x="1151.953125" y="141.453125" width="48.109375" height="16.015625"></rect><text class="label" x="1175.7893044464715" y="152.96091003327695" fill="red" text-anchor="middle">ProductId</text></g></svg>